<svg id="mail" xmlns="http://www.w3.org/2000/svg" viewBox="0 0 139.75 104.813">
  <defs>
    <style>
      .cls-1 {
        fill: #54b9a0;
      }
    </style>
  </defs>
  <g id="Symbol_1_2" data-name="Symbol 1 – 2" transform="translate(0 -64)">
    <path id="Path_64" data-name="Path 64" class="cls-1" d="M116.458,134.014V127.54a5.26,5.26,0,0,0-5.192-5.311,4.891,4.891,0,0,0-.631.125V75.646A11.659,11.659,0,0,0,98.989,64H11.646A11.659,11.659,0,0,0,0,75.646v58.229a11.659,11.659,0,0,0,11.646,11.646H75.7a4.848,4.848,0,0,0,1.251,3.372c4.595,4.839,19.436,18.563,20.062,19.146a2.913,2.913,0,0,0,3.958-4.276c-.148-.136-14.085-13.022-19.175-18.239,5.089-5.2,19.118-17.952,19.266-18.086a2.911,2.911,0,1,0-3.912-4.31c-.549.5-11.738,10.667-17.758,16.57H11.646a5.829,5.829,0,0,1-5.823-5.823V75.646a5.77,5.77,0,0,1,.493-2.315l43.367,35.564a10.3,10.3,0,0,0,5.635,1.689,10.559,10.559,0,0,0,5.908-1.879L104.32,73.33a5.767,5.767,0,0,1,.493,2.315v50.832c-.973.925-2.019,1.913-3.122,2.955C97,133.869,91.682,138.9,88.6,142.152a5.158,5.158,0,0,0-.006,6.741c3.1,3.261,8.433,8.305,13.136,12.755,2.32,2.2,4.447,4.205,5.982,5.7a5.08,5.08,0,0,0,3.554,1.467,5.259,5.259,0,0,0,5.192-5.308v-6.278c11,.466,17.469,3.636,17.469,8.675a2.912,2.912,0,1,0,5.823,0C139.75,147.363,130.908,135.413,116.458,134.014Zm-58.678-30a4.851,4.851,0,0,1-4.663.188L11.307,69.892c.118-.007.219-.069.339-.069H98.989c.121,0,.222.061.341.069Zm55.767,47.328a2.91,2.91,0,0,0-2.912,2.912v7.819c-1.393-1.336-3.088-2.943-4.9-4.657-4.35-4.111-9.24-8.734-12.3-11.893,3.048-3.15,7.927-7.759,12.26-11.859,1.956-1.851,3.776-3.574,4.941-4.87v7.992a2.91,2.91,0,0,0,2.912,2.912c11.93,0,16.957,7.708,19.016,15.274C128.656,152.859,122.674,151.344,113.547,151.344Z" transform="translate(0)"/>
  </g>
</svg>
