<svg id="identification" xmlns="http://www.w3.org/2000/svg" viewBox="0 0 108.625 80.111">
  <defs>
    <style>
      .cls-1 {
        fill: #54b9a0;
      }
    </style>
  </defs>
  <path id="Path_51" data-name="Path 51" class="cls-1" d="M126.325,105.15a11.7,11.7,0,1,0-11.7-11.7A11.7,11.7,0,0,0,126.325,105.15Zm0-18.851a7.174,7.174,0,1,1-7.174,7.174A7.174,7.174,0,0,1,126.325,86.3Zm0,0" transform="translate(-93.873 -65.999)"/>
  <path id="Path_52" data-name="Path 52" class="cls-1" d="M97.968,234.873a17.558,17.558,0,0,0-12.718,5.318A18.77,18.77,0,0,0,80,253.475a2.27,2.27,0,0,0,2.263,2.263h31.411a2.27,2.27,0,0,0,2.263-2.263,18.77,18.77,0,0,0-5.25-13.284A17.557,17.557,0,0,0,97.968,234.873ZM84.684,251.212a13.844,13.844,0,0,1,3.8-7.853,13.332,13.332,0,0,1,18.964,0,13.908,13.908,0,0,1,3.8,7.853Zm0,0" transform="translate(-65.517 -191.4)"/>
  <path id="Path_53" data-name="Path 53" class="cls-1" d="M97.31-5.25H11.315A11.32,11.32,0,0,0,0,6.065V63.546A11.32,11.32,0,0,0,11.315,74.861H97.31a11.32,11.32,0,0,0,11.315-11.315V6.065A11.32,11.32,0,0,0,97.31-5.25Zm6.789,68.8a6.809,6.809,0,0,1-6.789,6.789H11.315a6.809,6.809,0,0,1-6.789-6.789V6.065A6.809,6.809,0,0,1,11.315-.724H97.31A6.809,6.809,0,0,1,104.1,6.065Zm0,0" transform="translate(0 5.25)"/>
  <path id="Path_54" data-name="Path 54" class="cls-1" d="M377.252,203.5H350.888a2.263,2.263,0,0,0,0,4.526h26.364a2.263,2.263,0,0,0,0-4.526Zm0,0" transform="translate(-285.509 -165.708)"/>
  <path id="Path_55" data-name="Path 55" class="cls-1" d="M377.252,283.5H350.888a2.263,2.263,0,0,0,0,4.526h26.364a2.263,2.263,0,0,0,0-4.526Zm0,0" transform="translate(-285.509 -231.224)"/>
  <path id="Path_56" data-name="Path 56" class="cls-1" d="M377.252,123.5H350.888a2.263,2.263,0,0,0,0,4.526h26.364a2.263,2.263,0,0,0,0-4.526Zm0,0" transform="translate(-285.509 -100.191)"/>
</svg>
